
<svg xmlns="http://www.w3.org/2000/svg" viewBox="0 0 24 24" fill="#95BF47"><path d="M15.337 3.32c-.005-.05-.046-.076-.08-.08-.03-.005-.71-.022-.71-.022l-.586.604s-.197.061-.28.088c0-.02-.005-.04-.011-.06-.131-.416-.41-.798-.93-.798-.016 0-.033 0-.05.002-.147-.196-.328-.28-.485-.28-1.207 0-1.784 1.508-1.966 2.274-.47.145-.803.248-.846.262-.262.083-.27.09-.303.337-.025.185-.712 5.506-.712 5.506l5.425.939 2.936-.636s-1.398-9.456-1.402-9.521zm-2.464.796c-.241.074-.515.16-.811.25v-.175c0-.535-.074-.967-.193-1.31.477.06.796.605.994 1.236zm-1.296-1.151c.131.328.216.8.216 1.437v.095c-.528.163-1.102.341-1.678.52.324-1.245.93-1.846 1.462-2.052zm-.52-.494c.094 0 .188.032.28.095-.698.33-1.447 1.157-1.762 2.81l-1.33.41c.37-1.262 1.333-3.315 2.812-3.315z"></path><path d="M15.259 3.24s-.681-.017-.71-.022l-.587.603s-.032.005-.086.021l-.012.005-.006.002-.063.02-.01.004-.052.018-.003.001c-.07.024-.14.05-.21.074l-.013.005-.025.01-.015.006-.02.008-.01.004c-.03.013-.062.025-.094.04l-.002.001-.024.01-.022.01-.013.006-.037.017-.003.001-.03.014-.01.005-.024.013-.008.004-.016.009-.008.004-.015.009-.008.004-.028.016-.004.002-.036.022-.007.004-.023.016-.005.004-.026.02-.002.002c-.029.025-.056.051-.082.08l-.001.001c-.008.01-.016.02-.024.03l-.004.005-.014.018-.006.007-.016.023-.001.001c-.087.123-.163.284-.228.478-.003.008-.005.016-.008.024l-.005.013-.008.025-.003.008c-.022.068-.042.14-.06.215l-.002.008c-.004.017-.008.035-.012.053l-.002.007c-.016.071-.03.145-.043.222l-.001.005c-.003.02-.006.038-.009.058l-.001.006c-.004.024-.007.048-.01.073v.006c-.003.024-.006.048-.008.073v.005c-.015.149-.022.309-.022.482 0 .058.001.115.003.171.001.037.003.073.005.11L13.88 5.5c0-.02-.005-.04-.011-.06-.131-.416-.41-.798-.93-.798-.016 0-.033 0-.05.002-.147-.196-.328-.28-.485-.28-1.207 0-1.784 1.508-1.966 2.274-.47.145-.803.248-.846.262-.262.083-.27.09-.303.337-.025.185-.712 5.506-.712 5.506l5.425.939 2.936-.636s-1.398-9.456-1.402-9.521c-.005-.05-.046-.076-.08-.08z" fill="#5E8E3E"></path></svg>